<svg width="245" height="33" viewBox="0 0 245 33" fill="none" xmlns="http://www.w3.org/2000/svg">
<g filter="url(#filter0_d_999_8650)">
<path d="M149.584 24V12.164H153.016V24H149.584ZM151.3 10.514C150.669 10.514 150.156 10.3307 149.76 9.964C149.364 9.59733 149.166 9.14267 149.166 8.6C149.166 8.05733 149.364 7.60267 149.76 7.236C150.156 6.86933 150.669 6.686 151.3 6.686C151.931 6.686 152.444 6.862 152.84 7.214C153.236 7.55133 153.434 7.99133 153.434 8.534C153.434 9.106 153.236 9.58267 152.84 9.964C152.459 10.3307 151.945 10.514 151.3 10.514ZM163.395 11.988C164.334 11.988 165.17 12.1787 165.903 12.56C166.651 12.9267 167.238 13.4987 167.663 14.276C168.089 15.0387 168.301 16.0213 168.301 17.224V24H164.869V17.752C164.869 16.7987 164.657 16.0947 164.231 15.64C163.821 15.1853 163.234 14.958 162.471 14.958C161.929 14.958 161.437 15.0753 160.997 15.31C160.572 15.53 160.235 15.8747 159.985 16.344C159.751 16.8133 159.633 17.4147 159.633 18.148V24H156.201V12.164H159.479V15.442L158.863 14.452C159.289 13.66 159.897 13.0513 160.689 12.626C161.481 12.2007 162.383 11.988 163.395 11.988ZM171.412 24V12.164H174.844V24H171.412ZM173.128 10.514C172.497 10.514 171.984 10.3307 171.588 9.964C171.192 9.59733 170.994 9.14267 170.994 8.6C170.994 8.05733 171.192 7.60267 171.588 7.236C171.984 6.86933 172.497 6.686 173.128 6.686C173.759 6.686 174.272 6.862 174.668 7.214C175.064 7.55133 175.262 7.99133 175.262 8.534C175.262 9.106 175.064 9.58267 174.668 9.964C174.287 10.3307 173.773 10.514 173.128 10.514ZM182.869 24.176C181.476 24.176 180.391 23.824 179.613 23.12C178.836 22.4013 178.447 21.338 178.447 19.93V9.546H181.879V19.886C181.879 20.3847 182.011 20.7733 182.275 21.052C182.539 21.316 182.899 21.448 183.353 21.448C183.896 21.448 184.358 21.3013 184.739 21.008L185.663 23.428C185.311 23.6773 184.886 23.868 184.387 24C183.903 24.1173 183.397 24.176 182.869 24.176ZM176.621 15.068V12.428H184.827V15.068H176.621ZM187.59 24V12.164H191.022V24H187.59ZM189.306 10.514C188.675 10.514 188.162 10.3307 187.766 9.964C187.37 9.59733 187.172 9.14267 187.172 8.6C187.172 8.05733 187.37 7.60267 187.766 7.236C188.162 6.86933 188.675 6.686 189.306 6.686C189.937 6.686 190.45 6.862 190.846 7.214C191.242 7.55133 191.44 7.99133 191.44 8.534C191.44 9.106 191.242 9.58267 190.846 9.964C190.465 10.3307 189.951 10.514 189.306 10.514ZM201.467 24V21.69L201.247 21.184V17.048C201.247 16.3147 201.02 15.7427 200.565 15.332C200.125 14.9213 199.443 14.716 198.519 14.716C197.888 14.716 197.265 14.8187 196.649 15.024C196.048 15.2147 195.534 15.4787 195.109 15.816L193.877 13.418C194.522 12.9633 195.3 12.6113 196.209 12.362C197.118 12.1127 198.042 11.988 198.981 11.988C200.785 11.988 202.186 12.4133 203.183 13.264C204.18 14.1147 204.679 15.442 204.679 17.246V24H201.467ZM197.859 24.176C196.935 24.176 196.143 24.022 195.483 23.714C194.823 23.3913 194.317 22.9587 193.965 22.416C193.613 21.8733 193.437 21.2647 193.437 20.59C193.437 19.886 193.606 19.27 193.943 18.742C194.295 18.214 194.845 17.8033 195.593 17.51C196.341 17.202 197.316 17.048 198.519 17.048H201.665V19.05H198.893C198.086 19.05 197.529 19.182 197.221 19.446C196.928 19.71 196.781 20.04 196.781 20.436C196.781 20.876 196.95 21.228 197.287 21.492C197.639 21.7413 198.116 21.866 198.717 21.866C199.289 21.866 199.802 21.734 200.257 21.47C200.712 21.1913 201.042 20.788 201.247 20.26L201.775 21.844C201.526 22.6067 201.071 23.186 200.411 23.582C199.751 23.978 198.9 24.176 197.859 24.176ZM207.785 24V7.676H211.217V24H207.785ZM214.402 24V12.164H217.834V24H214.402ZM216.118 10.514C215.488 10.514 214.974 10.3307 214.578 9.964C214.182 9.59733 213.984 9.14267 213.984 8.6C213.984 8.05733 214.182 7.60267 214.578 7.236C214.974 6.86933 215.488 6.686 216.118 6.686C216.749 6.686 217.262 6.862 217.658 7.214C218.054 7.55133 218.252 7.99133 218.252 8.534C218.252 9.106 218.054 9.58267 217.658 9.964C217.277 10.3307 216.764 10.514 216.118 10.514ZM220.206 24V21.932L227.202 13.66L227.796 14.804H220.36V12.164H230.568V14.232L223.572 22.504L222.956 21.36H230.766V24H220.206ZM232.965 24V12.164H236.243V15.508L235.781 14.54C236.133 13.704 236.698 13.0733 237.475 12.648C238.252 12.208 239.198 11.988 240.313 11.988V15.156C240.166 15.1413 240.034 15.134 239.917 15.134C239.8 15.1193 239.675 15.112 239.543 15.112C238.604 15.112 237.842 15.3833 237.255 15.926C236.683 16.454 236.397 17.2827 236.397 18.412V24H232.965Z" fill="#0047BB"/>
</g>
<g filter="url(#filter1_d_999_8650)">
<mask id="mask0_999_8650" style="mask-type:alpha" maskUnits="userSpaceOnUse" x="25" y="7" width="19" height="18">
<path fill-rule="evenodd" clip-rule="evenodd" d="M25.5703 7.21167H43.6277V24.4485H25.5703V7.21167Z" fill="white"/>
</mask>
<g mask="url(#mask0_999_8650)">
<path fill-rule="evenodd" clip-rule="evenodd" d="M34.4539 18.9382C35.2186 18.9151 35.8842 18.6472 36.4483 18.1292C37.0124 17.6125 37.2945 16.8343 37.2945 15.7985C37.2945 14.7831 37.0124 14.0203 36.4483 13.5126C35.8842 13.0036 35.2098 12.7408 34.4251 12.7177C33.6266 12.7023 32.9421 12.9818 32.3793 13.5574C31.8164 14.1318 31.5331 14.8715 31.5331 15.7677C31.5331 16.6869 31.8202 17.451 32.3918 18.0561C32.966 18.6625 33.6529 18.9561 34.4539 18.9382V18.9382ZM37.5806 7.62192H43.6277V24.0385H37.5806V22.5436C36.6617 23.8154 35.2177 24.4487 33.2508 24.4487C31.0534 24.4487 29.2244 23.6308 27.7628 22.0013C26.2999 20.368 25.5703 18.2642 25.5703 15.6834C25.5703 13.1821 26.2999 11.1424 27.7628 9.56935C29.2244 7.99756 31.0534 7.21167 33.2508 7.21167C35.2177 7.21167 36.6617 7.83731 37.5806 9.08602V7.62192Z" fill="#0047BB"/>
</g>
<path fill-rule="evenodd" clip-rule="evenodd" d="M63.7242 8.93944C64.9324 9.99607 65.5384 11.5501 65.5384 13.6064V23.5937H58.6531V14.9637C58.6531 14.2857 58.4565 13.7722 58.0647 13.4246C57.6691 13.0744 57.1739 12.8987 56.5767 12.8987C55.9632 12.8987 55.4567 13.0905 55.0523 13.4654C54.6478 13.8428 54.4462 14.3624 54.4462 15.0219V23.5937H47.5898V7.75042H53.4396V9.4492C54.7461 8.05231 56.52 7.35449 58.7677 7.35449C60.8617 7.35449 62.5121 7.88405 63.7242 8.93944Z" fill="#0047BB"/>
<mask id="mask1_999_8650" style="mask-type:alpha" maskUnits="userSpaceOnUse" x="67" y="0" width="20" height="25">
<path fill-rule="evenodd" clip-rule="evenodd" d="M67.5352 0H86.0043V24.4483H67.5352V0Z" fill="white"/>
</mask>
<g mask="url(#mask1_999_8650)">
<path fill-rule="evenodd" clip-rule="evenodd" d="M76.5943 18.938C77.3751 18.938 78.0559 18.6726 78.6302 18.1444C79.2046 17.6149 79.5059 16.8342 79.5238 15.7983C79.5238 14.7829 79.2366 14.0201 78.6597 13.5124C78.0841 13.0034 77.3956 12.7406 76.5943 12.7175C75.7725 12.7021 75.0726 12.9816 74.4982 13.5573C73.9213 14.1316 73.6315 14.8714 73.6315 15.7675C73.6315 16.6867 73.9161 17.4457 74.4841 18.0406C75.0495 18.638 75.7533 18.938 76.5943 18.938V18.938ZM79.0556 0H86.0043V24.0383H79.8197V22.5434C78.8787 23.8152 77.403 24.4486 75.3928 24.4486C73.1441 24.4486 71.2736 23.6306 69.7787 22.0011C68.2839 20.3678 67.5352 18.273 67.5352 15.7101C67.5352 13.1922 68.2775 11.1422 69.7659 9.56917C71.2454 7.99738 73.1441 7.21149 75.4518 7.21149C76.9351 7.21149 78.1364 7.56277 79.0556 8.26661V0Z" fill="#0047BB"/>
</g>
<mask id="mask2_999_8650" style="mask-type:alpha" maskUnits="userSpaceOnUse" x="86" y="7" width="18" height="18">
<path fill-rule="evenodd" clip-rule="evenodd" d="M86.9414 7.21167H103.796V24.4495H86.9414V7.21167Z" fill="white"/>
</mask>
<g mask="url(#mask2_999_8650)">
<path fill-rule="evenodd" clip-rule="evenodd" d="M97.6125 12.5193C97.1432 12.0693 96.5176 11.8424 95.7356 11.8424C94.9535 11.8424 94.3086 12.0655 93.7984 12.5039C93.292 12.9424 92.9497 13.5449 92.774 14.309H98.3727C98.333 13.5642 98.0817 12.968 97.6125 12.5193M103.796 15.3629C103.796 15.8514 103.748 16.5539 103.65 17.4706L93.0067 17.5308C93.6926 19.0539 95.4221 19.8167 98.199 19.8167C99.6221 19.8167 101.158 19.5513 102.802 19.0257V23.3949C100.962 24.0975 99.0272 24.45 96.9965 24.45C93.8683 24.45 91.4119 23.6744 89.6234 22.118C87.8337 20.5654 86.9414 18.4103 86.9414 15.6552C86.9414 13.0565 87.7427 11.0001 89.344 9.48601C90.9478 7.97064 93.0298 7.21167 95.5901 7.21167C98.1888 7.21167 100.207 7.97577 101.644 9.49883C103.08 11.0257 103.796 12.9757 103.796 15.3629" fill="#0047BB"/>
</g>
<path fill-rule="evenodd" clip-rule="evenodd" d="M112.032 8.7786C113.213 7.25765 115.093 6.49976 117.673 6.49976V12.9767C117.21 12.8797 116.791 12.8293 116.412 12.8293C115.513 12.8293 114.724 13.066 114.042 13.5393C113.365 14.0114 112.963 14.7318 112.843 15.6979V23.5937H105.707V7.03261H112.032V8.7786Z" fill="#0047BB"/>
<mask id="mask3_999_8650" style="mask-type:alpha" maskUnits="userSpaceOnUse" x="119" y="7" width="18" height="18">
<path fill-rule="evenodd" clip-rule="evenodd" d="M119.055 7.21167H136.998V24.4485H119.055V7.21167Z" fill="white"/>
</mask>
<g mask="url(#mask3_999_8650)">
<path fill-rule="evenodd" clip-rule="evenodd" d="M125.89 18.0307C126.475 18.6358 127.185 18.9409 128.026 18.9409C128.865 18.9409 129.573 18.6358 130.146 18.0307C130.721 17.423 131.007 16.6691 131.007 15.7704C131.007 14.9115 130.721 14.1884 130.146 13.6038C129.573 13.014 128.865 12.7204 128.026 12.7204C127.185 12.7204 126.475 13.014 125.89 13.6038C125.307 14.1884 125.018 14.9115 125.018 15.7704C125.018 16.6691 125.307 17.423 125.89 18.0307M134.446 22.0282C132.745 23.641 130.606 24.4487 128.028 24.4487C125.447 24.4487 123.308 23.641 121.607 22.0282C119.906 20.418 119.055 18.3026 119.055 15.6834C119.055 13.145 119.906 11.095 121.607 9.54242C123.308 7.99243 125.447 7.21167 128.028 7.21167C130.606 7.21167 132.745 7.99243 134.446 9.54242C136.151 11.095 136.998 13.145 136.998 15.6834C136.998 18.3026 136.151 20.418 134.446 22.0282" fill="#0047BB"/>
</g>
<mask id="mask4_999_8650" style="mask-type:alpha" maskUnits="userSpaceOnUse" x="4" y="1" width="21" height="24">
<path fill-rule="evenodd" clip-rule="evenodd" d="M4 1.00488H24.5209V24.0446H4V1.00488Z" fill="white"/>
</mask>
<g mask="url(#mask4_999_8650)">
<path fill-rule="evenodd" clip-rule="evenodd" d="M18.5839 12.7729H12.518V18.5152H15.282C21.0688 18.5152 24.5215 15.0212 24.5215 9.74239C24.5215 4.49384 21.0688 1.00488 15.282 1.00488H4V24.0446H11.104V6.74466H18.5839L16.4534 9.75876L18.5839 12.7729Z" fill="#0047BB"/>
</g>
</g>
<defs>
<filter id="filter0_d_999_8650" x="145.164" y="6.68604" width="99.1484" height="25.49" filterUnits="userSpaceOnUse" color-interpolation-filters="sRGB">
<feFlood flood-opacity="0" result="BackgroundImageFix"/>
<feColorMatrix in="SourceAlpha" type="matrix" values="0 0 0 0 0 0 0 0 0 0 0 0 0 0 0 0 0 0 127 0" result="hardAlpha"/>
<feOffset dy="4"/>
<feGaussianBlur stdDeviation="2"/>
<feComposite in2="hardAlpha" operator="out"/>
<feColorMatrix type="matrix" values="0 0 0 0 0 0 0 0 0 0 0 0 0 0 0 0 0 0 0.25 0"/>
<feBlend mode="normal" in2="BackgroundImageFix" result="effect1_dropShadow_999_8650"/>
<feBlend mode="normal" in="SourceGraphic" in2="effect1_dropShadow_999_8650" result="shape"/>
</filter>
<filter id="filter1_d_999_8650" x="0" y="0" width="140.996" height="32.4495" filterUnits="userSpaceOnUse" color-interpolation-filters="sRGB">
<feFlood flood-opacity="0" result="BackgroundImageFix"/>
<feColorMatrix in="SourceAlpha" type="matrix" values="0 0 0 0 0 0 0 0 0 0 0 0 0 0 0 0 0 0 127 0" result="hardAlpha"/>
<feOffset dy="4"/>
<feGaussianBlur stdDeviation="2"/>
<feComposite in2="hardAlpha" operator="out"/>
<feColorMatrix type="matrix" values="0 0 0 0 0 0 0 0 0 0 0 0 0 0 0 0 0 0 0.25 0"/>
<feBlend mode="normal" in2="BackgroundImageFix" result="effect1_dropShadow_999_8650"/>
<feBlend mode="normal" in="SourceGraphic" in2="effect1_dropShadow_999_8650" result="shape"/>
</filter>
</defs>
</svg>
